<svg width="38" height="39" viewBox="0 0 38 39" fill="none" xmlns="http://www.w3.org/2000/svg">
<path id="Car" d="M32.3 35.2175H5.7V37.1088C5.7 38.1533 4.84933 39 3.8 39H1.9C0.850668 39 0 38.1533 0 37.1088V20.0876L4.59306 12.4677C5.2798 11.3284 6.51673 10.6313 7.85152 10.6313H30.1484C31.4832 10.6313 32.7203 11.3284 33.4069 12.4677L38 20.0876V37.1088C38 38.1533 37.1494 39 36.1 39H34.2C33.1506 39 32.3 38.1533 32.3 37.1088V35.2175ZM4.43152 20.0876H33.5684L30.1484 14.4138H7.85152L4.43152 20.0876ZM8.55 29.5438C10.124 29.5438 11.4 28.2736 11.4 26.7069C11.4 25.1402 10.124 23.87 8.55 23.87C6.97598 23.87 5.7 25.1402 5.7 26.7069C5.7 28.2736 6.97598 29.5438 8.55 29.5438ZM29.45 29.5438C31.024 29.5438 32.3 28.2736 32.3 26.7069C32.3 25.1402 31.024 23.87 29.45 23.87C27.876 23.87 26.6 25.1402 26.6 26.7069C26.6 28.2736 27.876 29.5438 29.45 29.5438ZM6.53475 2.00597L8.55 0L10.5653 2.00597C11.081 2.51935 11.4 3.22856 11.4 4.01194C11.4 5.5787 10.124 6.8488 8.55 6.8488C6.97598 6.8488 5.7 5.5787 5.7 4.01194C5.7 3.22856 6.01899 2.51935 6.53475 2.00597ZM16.9847 2.00597L19 0L21.0153 2.00597C21.531 2.51935 21.85 3.22856 21.85 4.01194C21.85 5.5787 20.574 6.8488 19 6.8488C17.426 6.8488 16.15 5.5787 16.15 4.01194C16.15 3.22856 16.469 2.51935 16.9847 2.00597ZM27.4347 2.00597L29.45 0L31.4653 2.00597C31.981 2.51935 32.3 3.22856 32.3 4.01194C32.3 5.5787 31.024 6.8488 29.45 6.8488C27.876 6.8488 26.6 5.5787 26.6 4.01194C26.6 3.22856 26.919 2.51935 27.4347 2.00597Z" fill="#E60000"/>
</svg>
