<svg width="72" height="71" viewBox="0 0 72 71" fill="none" xmlns="http://www.w3.org/2000/svg">
<g id="Pending Alerts Icon">
<path id="Circle 2" opacity="0.3" fill-rule="evenodd" clip-rule="evenodd" d="M0.977173 35.1517V47.2923C0.977173 59.9948 11.2746 70.2923 23.9772 70.2923H36.1178H48.2584C60.9609 70.2923 71.2584 59.9949 71.2584 47.2923V35.1517V23.0111C71.2584 10.3086 60.9609 0.0111084 48.2584 0.0111084H36.1178H23.9772C11.2746 0.0111084 0.977173 10.3085 0.977173 23.0111V35.1517Z" fill="#FF9066"/>
<g id="icon">
<path id="Path 107" opacity="0.78" fill-rule="evenodd" clip-rule="evenodd" d="M34.5204 27.8204C34.5404 27.5599 34.7576 27.3588 35.0189 27.3588H35.6652C35.9221 27.3588 36.1371 27.5534 36.1627 27.809L36.8986 35.1678L42.113 38.1474C42.2687 38.2365 42.3649 38.4021 42.3649 38.5816V39.1986C42.3649 39.5283 42.0514 39.7677 41.7333 39.681L34.1736 37.6192C33.9423 37.5561 33.7883 37.3376 33.8067 37.0985L34.5204 27.8204Z" fill="#FF9066"/>
<path id="Combined Shape" opacity="0.901274" fill-rule="evenodd" clip-rule="evenodd" d="M27.4829 17.4325C27.2188 17.1177 26.7088 17.2382 26.6135 17.6378L24.6339 25.937C24.5562 26.2627 24.8143 26.5712 25.1486 26.5522L33.686 26.0684C34.0969 26.0451 34.3053 25.5631 34.0407 25.2478L31.8208 22.6022C33.1852 22.1359 34.632 21.8924 36.1177 21.8924C43.4495 21.8924 49.393 27.836 49.393 35.1677C49.393 42.4995 43.4495 48.4431 36.1177 48.4431C28.7859 48.4431 22.8424 42.4995 22.8424 35.1677C22.8424 33.9369 23.009 32.7314 23.334 31.5728L20.3265 30.7292C19.9305 32.1408 19.7188 33.6295 19.7188 35.1677C19.7188 44.2246 27.0608 51.5667 36.1177 51.5667C45.1746 51.5667 52.5166 44.2246 52.5166 35.1677C52.5166 26.1108 45.1746 18.7688 36.1177 18.7688C33.8396 18.7688 31.6699 19.2333 29.6984 20.0728L27.4829 17.4325Z" fill="#FF9066"/>
</g>
</g>
</svg>
