<svg width="72" height="71" viewBox="0 0 72 71" fill="none" xmlns="http://www.w3.org/2000/svg">
<g id="Total Alerts Icon">
<path id="Circle 2" opacity="0.21" fill-rule="evenodd" clip-rule="evenodd" d="M0.941895 35.1517V47.2923C0.941895 59.9948 11.2393 70.2923 23.9419 70.2923H36.0825H48.2231C60.9256 70.2923 71.2231 59.9949 71.2231 47.2923V35.1517V23.0111C71.2231 10.3086 60.9257 0.0111084 48.2231 0.0111084H36.0825H23.9419C11.2393 0.0111084 0.941895 10.3085 0.941895 23.0111V35.1517Z" fill="#4AD991"/>
<g id="icon">
<path id="Path 95" d="M23.3278 47.9065H50.6594C51.6657 47.9065 52.4815 48.7223 52.4815 49.7286C52.4815 50.7349 51.6657 51.5507 50.6594 51.5507H21.5057C20.4994 51.5507 19.6836 50.7349 19.6836 49.7286V20.5749C19.6836 19.5686 20.4994 18.7528 21.5057 18.7528C22.512 18.7528 23.3278 19.5686 23.3278 20.5749V47.9065Z" fill="#4AD991"/>
<path id="Path 97" opacity="0.5" d="M30.1235 40.0421C29.4352 40.7762 28.2821 40.8134 27.5479 40.1252C26.8138 39.4369 26.7766 38.2838 27.4649 37.5497L34.2978 30.2612C34.9634 29.5512 36.0695 29.4897 36.8098 30.1214L42.2028 34.7234L49.2293 25.8231C49.8528 25.0333 50.9986 24.8985 51.7885 25.522C52.5783 26.1456 52.7131 27.2914 52.0896 28.0812L43.8901 38.4672C43.2496 39.2785 42.0634 39.3951 41.2772 38.7242L35.767 34.0222L30.1235 40.0421Z" fill="#4AD991"/>
</g>
</g>
</svg>
