<svg width="71" height="71" viewBox="0 0 71 71" fill="none" xmlns="http://www.w3.org/2000/svg">
<g id="Total User Icon">
<path id="Circle 2" opacity="0.21" fill-rule="evenodd" clip-rule="evenodd" d="M0 35.1517V47.2923C0 59.9948 10.2974 70.2923 23 70.2923H35.1406H47.2812C59.9837 70.2923 70.2812 59.9949 70.2812 47.2923V35.1517V23.0111C70.2812 10.3086 59.9838 0.0111084 47.2812 0.0111084H35.1406H23C10.2975 0.0111084 0 10.3085 0 23.0111V35.1517Z" fill="#8280FF"/>
<g id="Group">
<path id="Combined Shape" opacity="0.587821" fill-rule="evenodd" clip-rule="evenodd" d="M24.2079 27.3427C24.2079 30.7929 27.0049 33.5899 30.4552 33.5899C33.9054 33.5899 36.7024 30.7929 36.7024 27.3427C36.7024 23.8924 33.9054 21.0955 30.4552 21.0955C27.0049 21.0955 24.2079 23.8924 24.2079 27.3427ZM39.826 33.59C39.826 36.1777 41.9237 38.2754 44.5114 38.2754C47.0991 38.2754 49.1968 36.1777 49.1968 33.59C49.1968 31.0023 47.0991 28.9046 44.5114 28.9046C41.9237 28.9046 39.826 31.0023 39.826 33.59Z" fill="#8280FF"/>
<path id="Combined Shape_2" fill-rule="evenodd" clip-rule="evenodd" d="M30.4291 36.7136C23.0552 36.7136 17.0053 40.5034 16.3999 47.9574C16.367 48.3634 17.1435 49.2081 17.5351 49.2081H43.3349C44.5081 49.2081 44.5264 48.2639 44.5081 47.9586C44.0505 40.2951 37.9069 36.7136 30.4291 36.7136ZM53.0326 49.208H47.0103C47.0103 45.6925 45.8488 42.4482 43.8886 39.8381C49.2089 39.8963 53.553 42.5861 53.8799 48.2709C53.8931 48.4999 53.8799 49.208 53.0326 49.208Z" fill="#8280FF"/>
</g>
</g>
</svg>
