<svg width="72" height="71" viewBox="0 0 72 71" fill="none" xmlns="http://www.w3.org/2000/svg">
<g id="Total Report Icon">
<path id="Circle 2" opacity="0.21" fill-rule="evenodd" clip-rule="evenodd" d="M0.906738 35.1406V47.2812C0.906738 59.9837 11.2042 70.2812 23.9067 70.2812H36.0473H48.1879C60.8905 70.2812 71.1879 59.9838 71.1879 47.2812V35.1406V23C71.1879 10.2975 60.8905 0 48.1879 0H36.0473H23.9067C11.2042 0 0.906738 10.2974 0.906738 23V35.1406Z" fill="#FEC53D"/>
<g id="icon">
<path id="Combined Shape" fill-rule="evenodd" clip-rule="evenodd" d="M18.477 28.4832L33.588 37.2075C33.7507 37.3015 33.9214 37.3693 34.095 37.4124V54.3329L19.5547 45.7279C18.8867 45.3325 18.477 44.614 18.477 43.8378V28.4832ZM53.6176 28.2512V43.8378C53.6176 44.614 53.2079 45.3325 52.5399 45.7279L37.9995 54.3329V37.2641C38.035 37.2465 38.0701 37.2276 38.1048 37.2075L53.6176 28.2512Z" fill="#FEC53D"/>
<path id="Path" opacity="0.499209" fill-rule="evenodd" clip-rule="evenodd" d="M18.9516 24.2486C19.1362 24.0155 19.3692 23.8186 19.6408 23.6739L35.0148 15.4854C35.6602 15.1416 36.4343 15.1416 37.0797 15.4854L52.4538 23.6739C52.6631 23.7854 52.8495 23.928 53.0085 24.0943L36.1526 33.8261C36.0417 33.8901 35.9395 33.9633 35.8464 34.0442C35.7533 33.9633 35.6511 33.8901 35.5403 33.8261L18.9516 24.2486Z" fill="#FEC53D"/>
</g>
</g>
</svg>
