<svg width="22" height="24" viewBox="0 0 22 24" fill="none" xmlns="http://www.w3.org/2000/svg">
<rect width="22" height="24" fill="#1E1E1E"/>
<g id="6. Send Alerts" clip-path="url(#clip0_201_403)">
<rect width="1920" height="1080" transform="translate(-76 -505)" fill="#F5F6FA"/>
<rect id="Rectangle 24" x="-76" y="-505" width="468" height="1080" fill="white"/>
<g id="Frame 8">
<g id="Send Alerts">
<rect x="-31" y="-18" width="377" height="62" rx="10" fill="#007100" fill-opacity="0.15"/>
<path id="alert-line" d="M14.6667 2.4H2.44444V21.6H19.5556V7.2H14.6667V2.4ZM0 1.19016C0 0.53286 0.546932 0 1.22039 0H15.8889L21.9996 6L22 22.791C22 23.4587 21.4562 24 20.7858 24H1.21416C0.543596 24 0 23.4536 0 22.8098V1.19016ZM9.77778 15.6H12.2222V18H9.77778V15.6ZM9.77778 6H12.2222V13.2H9.77778V6Z" fill="#007100"/>
</g>
</g>
</g>
<defs>
<clipPath id="clip0_201_403">
<rect width="1920" height="1080" fill="white" transform="translate(-76 -505)"/>
</clipPath>
</defs>
</svg>
