<svg width="70" height="70" viewBox="0 0 70 70" fill="none" xmlns="http://www.w3.org/2000/svg">
<path id="Icon" d="M35 70C15.67 70 0 54.3298 0 35C0 15.67 15.67 0 35 0C54.3298 0 70 15.67 70 35C70 54.3298 54.3298 70 35 70ZM35 63C50.4641 63 63 50.4641 63 35C63 19.536 50.4641 7 35 7C19.536 7 7 19.536 7 35C7 50.4641 19.536 63 35 63ZM31.5 45.5H38.5V52.5H31.5V45.5ZM38.5 39.7428V42H31.5V36.75C31.5 34.817 33.067 33.25 35 33.25C37.8994 33.25 40.25 30.8994 40.25 28C40.25 25.1005 37.8994 22.75 35 22.75C32.453 22.75 30.3296 24.5638 29.8508 26.9702L22.9856 25.5971C24.1023 19.9822 29.057 15.75 35 15.75C41.7655 15.75 47.25 21.2345 47.25 28C47.25 33.5493 43.56 38.2368 38.5 39.7428Z" fill="#E60000"/>
</svg>
