<svg width="23" height="24" viewBox="0 0 23 24" fill="none" xmlns="http://www.w3.org/2000/svg">
<rect width="23" height="24" fill="#1E1E1E"/>
<g id="7. Settings" clip-path="url(#clip0_201_403)">
<rect width="1920" height="1080" transform="translate(-76 -587)" fill="#F5F6FA"/>
<rect id="Rectangle 24" x="-76" y="-587" width="468" height="1080" fill="white"/>
<g id="Frame 8">
<g id="Settings">
<rect x="-31" y="-18" width="377" height="62" rx="10" fill="#007100" fill-opacity="0.15"/>
<path id="setting-line" d="M1.16705 17.999C0.651314 17.1007 0.26421 16.1633 0 15.2081C1.1603 14.6128 1.95484 13.3997 1.95484 12C1.95484 10.6014 1.16149 9.38898 0.00262479 8.79317C0.535627 6.86042 1.5478 5.06043 2.98693 3.58917C4.07981 4.30203 5.5219 4.38743 6.72742 3.68754C7.93294 2.98765 8.58044 1.68909 8.51294 0.38094C10.4996 -0.136701 12.5559 -0.118176 14.4869 0.384036C14.4206 1.69114 15.068 2.9882 16.2726 3.68754C17.4781 4.38741 18.9202 4.30203 20.013 3.58924C20.7034 4.29687 21.3172 5.10271 21.833 6.001C22.3487 6.89928 22.7358 7.83674 23 8.79182C21.8397 9.38715 21.0452 10.6003 21.0452 12C21.0452 13.3987 21.8385 14.611 22.9974 15.2068C22.4644 17.1396 21.4523 18.9395 20.0131 20.4108C18.9202 19.698 17.4781 19.6126 16.2726 20.3124C15.067 21.0123 14.4196 22.3109 14.487 23.6191C12.5004 24.1367 10.4442 24.1182 8.5131 23.616C8.57941 22.3088 7.93199 21.0118 6.72742 20.3124C5.52194 19.6126 4.07992 19.6979 2.98705 20.4107C2.29662 19.7031 1.6828 18.8973 1.16705 17.999ZM7.92057 18.2344C9.22274 18.9904 10.1579 20.1856 10.6058 21.5572C11.2004 21.6141 11.7989 21.6149 12.3935 21.5591C12.8412 20.1868 13.7766 18.9907 15.0794 18.2344C16.3822 17.4779 17.8801 17.2615 19.2859 17.5577C19.6312 17.0677 19.9297 16.546 20.178 15.9999C19.2207 14.924 18.6589 13.512 18.6589 12C18.6589 10.488 19.2207 9.07608 20.178 8.00022C20.0538 7.72906 19.9166 7.46237 19.7663 7.2008C19.6161 6.93922 19.455 6.68641 19.2836 6.44278C17.8785 6.73834 16.3816 6.52163 15.0794 5.76565C13.7772 5.00966 12.8422 3.81433 12.3941 2.44281C11.7997 2.38592 11.2011 2.38511 10.6066 2.44085C10.1588 3.81317 9.22334 5.00928 7.92057 5.76565C6.61775 6.52203 5.11993 6.73856 3.7142 6.44231C3.36887 6.93229 3.07032 7.45391 2.82206 8.00006C3.77927 9.07597 4.34113 10.488 4.34113 12C4.34113 13.512 3.77929 14.9239 2.82206 15.9998C2.94628 16.2709 3.08346 16.5376 3.23365 16.7992C3.38383 17.0607 3.54492 17.3135 3.7164 17.5572C5.12151 17.2617 6.61844 17.4784 7.92057 18.2344ZM11.5 15.5994C9.52318 15.5994 7.92057 13.9879 7.92057 12C7.92057 10.0122 9.52318 8.4006 11.5 8.4006C13.4769 8.4006 15.0794 10.0122 15.0794 12C15.0794 13.9879 13.4769 15.5994 11.5 15.5994ZM11.5 13.1998C12.159 13.1998 12.6931 12.6626 12.6931 12C12.6931 11.3373 12.159 10.8002 11.5 10.8002C10.841 10.8002 10.3068 11.3373 10.3068 12C10.3068 12.6626 10.841 13.1998 11.5 13.1998Z" fill="#007100"/>
</g>
</g>
</g>
<defs>
<clipPath id="clip0_201_403">
<rect width="1920" height="1080" fill="white" transform="translate(-76 -587)"/>
</clipPath>
</defs>
</svg>
