<svg width="20" height="24" viewBox="0 0 20 24" fill="none" xmlns="http://www.w3.org/2000/svg">
<rect width="20" height="24" fill="#1E1E1E"/>
<g id="5. User Management" clip-path="url(#clip0_201_403)">
<rect width="1920" height="1080" transform="translate(-76 -423)" fill="#F5F6FA"/>
<rect id="Rectangle" x="-76" y="-423" width="468" height="1080" fill="white"/>
<g id="Sidebar Menu">
<g id="User Management">
<rect x="-31" y="-18" width="377" height="62" rx="10" fill="#007100" fill-opacity="0.15"/>
<path id="user-line" d="M0.870078 1.99198L10 0L19.1299 1.99198C19.6383 2.1029 20 2.5456 20 3.05691V13.9515C20 16.14 18.886 18.1837 17.0313 19.3977L10 24L2.96867 19.3977C1.11401 18.1837 0 16.14 0 13.9515V3.05691C0 2.5456 0.3617 2.1029 0.870078 1.99198ZM2.22222 3.93201V13.9515C2.22222 15.4105 2.96489 16.7729 4.20133 17.5823L10 21.3778L15.7987 17.5823C17.0351 16.7729 17.7778 15.4105 17.7778 13.9515V3.93201L10 2.23504L2.22222 3.93201ZM10 10.9091C8.46589 10.9091 7.22222 9.68805 7.22222 8.18182C7.22222 6.67559 8.46589 5.45455 10 5.45455C11.5341 5.45455 12.7778 6.67559 12.7778 8.18182C12.7778 9.68805 11.5341 10.9091 10 10.9091ZM5.03051 16.3636C5.30688 13.9091 7.42636 12 10 12C12.5737 12 14.6931 13.9091 14.9694 16.3636H5.03051Z" fill="#007100"/>
</g>
</g>
</g>
<defs>
<clipPath id="clip0_201_403">
<rect width="1920" height="1080" fill="white" transform="translate(-76 -423)"/>
</clipPath>
</defs>
</svg>
