<svg width="25" height="25" viewBox="0 0 25 25" fill="none" xmlns="http://www.w3.org/2000/svg">
<path id="Star" d="M16.9655 8.45811C16.7612 8.43787 16.5815 8.31462 16.489 8.13137L12.7731 0.76871C12.7729 0.768341 12.7727 0.767973 12.7725 0.767605C12.7193 0.664664 12.6131 0.6 12.4972 0.6C12.3814 0.6 12.2752 0.664621 12.222 0.767502C12.2218 0.767904 12.2216 0.768307 12.2214 0.76871L8.51109 8.12674C8.41863 8.31008 8.23884 8.43342 8.0345 8.45366L0.879493 9.16257L0.870035 9.16351L0.870029 9.16343C0.755582 9.17295 0.657078 9.24817 0.61778 9.35618C0.578504 9.46412 0.605566 9.58503 0.687054 9.66592L16.9655 8.45811ZM16.9655 8.45811L24.1205 9.16702L24.1205 9.16709L24.13 9.16788C24.2444 9.17739 24.3429 9.25262 24.3822 9.36062C24.4215 9.46863 24.3944 9.58962 24.3128 9.67051L24.3128 9.67052L18.4243 15.5073C18.2704 15.6599 18.2107 15.8837 18.2683 16.0927L20.45 24.0188C20.4502 24.0194 20.4503 24.0201 20.4505 24.0207C20.4802 24.1356 20.4402 24.2573 20.3481 24.3321C20.2554 24.4074 20.1273 24.4213 20.0207 24.3677L20.0174 24.366L12.7635 20.7737C12.5957 20.6906 12.3987 20.6906 12.2309 20.7737L4.98702 24.3616L4.98376 24.3632C4.87715 24.4168 4.749 24.4029 4.65636 24.3277C4.56422 24.2528 4.52424 24.1311 4.55394 24.0162C4.55411 24.0156 4.55428 24.015 4.55445 24.0143L6.73619 16.0883C6.79374 15.8792 6.734 15.6553 6.57994 15.5027L0.687203 9.66606L16.9655 8.45811Z" fill="#007100" stroke="#007100" stroke-width="1.2" stroke-linecap="round" stroke-linejoin="round"/>
</svg>
