<svg width="27" height="27" viewBox="0 0 27 27" fill="none" xmlns="http://www.w3.org/2000/svg">
<path id="Star" fill-rule="evenodd" clip-rule="evenodd" d="M14.3072 1.49528L18.0247 8.86103L25.1797 9.56994C25.5275 9.59885 25.8267 9.82746 25.9461 10.1555C26.0654 10.4835 25.9831 10.8509 25.7352 11.0966L19.8467 16.9335L22.0299 24.8648C22.1211 25.2084 22.0024 25.5736 21.7264 25.7978C21.4505 26.022 21.0687 26.0634 20.7511 25.9037L13.4972 22.3114L6.25333 25.8993C5.93572 26.059 5.55396 26.0175 5.27803 25.7934C5.00209 25.5692 4.8833 25.204 4.97454 24.8603L7.15771 16.929L1.26482 11.0922C1.01693 10.8465 0.934596 10.479 1.05394 10.151C1.17329 9.82301 1.47252 9.5944 1.82034 9.5655L8.97534 8.85659L12.6873 1.49528C12.8429 1.19126 13.1557 1 13.4972 1C13.8387 1 14.1515 1.19126 14.3072 1.49528Z" stroke="#B3B3B3" stroke-width="1.2" stroke-linecap="round" stroke-linejoin="round"/>
</svg>
